<svg width="40" height="40" viewBox="0 0 40 40" fill="none" xmlns="http://www.w3.org/2000/svg">
<circle cx="20" cy="20" r="20" fill="url(#paint0_linear_1701_5057)"/>
<path d="M28.385 13.5793L21.115 9.42654C20.1192 8.85782 18.8808 8.85782 17.885 9.42654L10.615 13.5793C9.61794 14.1492 9 15.21 9 16.3474V24.6529C9 25.7904 9.61917 26.8511 10.615 27.421L17.885 31.5738C18.3835 31.8587 18.9411 32 19.5 32C20.0589 32 20.6177 31.8575 21.115 31.5738L28.385 27.421C29.3808 26.8523 30 25.7916 30 24.6529V16.3474C30 15.2087 29.3821 14.1492 28.385 13.5793ZM28.0699 22.7434V24.4641C28.0699 25.039 27.7572 25.5736 27.255 25.861L20.3149 29.825C19.8127 30.1124 19.1873 30.1124 18.6851 29.825L11.745 25.861C11.2428 25.5736 10.9301 25.039 10.9301 24.4641V17.2535V17.1317C10.9301 16.4631 11.4779 15.9199 12.1549 15.9199C12.8307 15.9199 13.3797 16.4619 13.3797 17.1317V21.075C13.3797 21.7435 13.9275 22.2855 14.6045 22.2855C15.2803 22.2855 15.8293 21.7435 15.8293 21.0737V20.0934V18.3604C15.8293 17.6919 16.3771 17.1487 17.0541 17.1487C17.7299 17.1487 18.2789 17.6906 18.2789 18.3604V23.9721V25.9779C18.2789 26.6465 18.8267 27.1896 19.5037 27.1896C20.1795 27.1896 20.7285 26.6477 20.7285 25.9779V21.4939V15.0723C20.7285 14.4038 21.2763 13.8606 21.9533 13.8606C22.6291 13.8606 23.1781 14.4025 23.1781 15.0723V22.2867C23.1781 22.9553 23.7258 23.4972 24.4029 23.4972C25.0787 23.4972 25.6277 22.9553 25.6277 22.2855V18.6966V17.1317C25.6277 16.4631 26.1754 15.9199 26.8525 15.9199C27.5283 15.9199 28.0773 16.4619 28.0773 17.1317V22.7434H28.0699Z" fill="#F9FAFF"/>
<defs>
<linearGradient id="paint0_linear_1701_5057" x1="20" y1="0" x2="20" y2="40" gradientUnits="userSpaceOnUse">
<stop stop-color="#EA748F"/>
<stop offset="0.536458" stop-color="#FF418A"/>
<stop offset="1" stop-color="#F237A5"/>
</linearGradient>
</defs>
</svg>
